<svg xmlns="http://www.w3.org/2000/svg" viewBox="0 0 48 30.53"><defs><style>.cls-1{fill:#ca8716;}</style></defs><title>アセット 10</title><g id="レイヤー_2" data-name="レイヤー 2"><g id="レイヤー_1-2" data-name="レイヤー 1"><path class="cls-1" d="M8.78,28.45s5.46-1.56,7.87-2.11,10.22-5.57,10.22-5.57S19.4,22.86,16.32,24C14.27,24.77,8.78,28.45,8.78,28.45Z"/><path class="cls-1" d="M44.86,20.35a3.51,3.51,0,0,0-1.55,1.89,3.47,3.47,0,0,0,2.45,0A8.78,8.78,0,0,0,48,20.49S46,19.84,44.86,20.35Z"/><path class="cls-1" d="M44.59,23.09a11.15,11.15,0,0,0-2.43.27,3.46,3.46,0,0,0,1.73,1.72c1.15.4,2.66-1.65,2.66-1.65A4.07,4.07,0,0,0,44.59,23.09Z"/><path class="cls-1" d="M42,24.3a3.51,3.51,0,0,0-2.13-1.21,3.47,3.47,0,0,0,.4,2.41C41,26.5,43,27,43,27A8.63,8.63,0,0,0,42,24.3Z"/><path class="cls-1" d="M38.85,25.29a3.46,3.46,0,0,0-2-1.42A3.47,3.47,0,0,0,37,26.31c.59,1.06,2.68,1.53,2.68,1.53A9.31,9.31,0,0,0,38.85,25.29Z"/><path class="cls-1" d="M36,26.28a3.49,3.49,0,0,0-1.84-1.6,3.44,3.44,0,0,0-.09,2.44c.49,1.12,2.54,1.71,2.54,1.71A9.4,9.4,0,0,0,36,26.28Z"/><path class="cls-1" d="M33.44,27a3.49,3.49,0,0,0-1.78-1.67,3.42,3.42,0,0,0-.18,2.43,3.48,3.48,0,0,0,1.78,1.68A3.5,3.5,0,0,0,33.44,27Z"/><path class="cls-1" d="M43.05,20.57a3.47,3.47,0,0,1-1.62,1.83A3.47,3.47,0,0,1,41,20c.33-1.17,2.3-1.73,2.3-1.73A8,8,0,0,1,43.05,20.57Z"/><path class="cls-1" d="M39.84,21.45a3.48,3.48,0,0,1-1.4,2,3.45,3.45,0,0,1-.68-2.34c.2-1.2,2.09-1.89,2.09-1.89A7.18,7.18,0,0,1,39.84,21.45Z"/><path class="cls-1" d="M36.78,22.29a3.47,3.47,0,0,1-1.62,1.83,3.51,3.51,0,0,1-.41-2.41c.34-1.17,2.31-1.72,2.31-1.72A7.79,7.79,0,0,1,36.78,22.29Z"/><path class="cls-1" d="M33.74,22.89a3.49,3.49,0,0,1-2,1.46,3.48,3.48,0,0,1,.08-2.44,7.93,7.93,0,0,1,2.07-2.15A6.2,6.2,0,0,1,33.74,22.89Z"/><path class="cls-1" d="M22.37,26.51c3-.5,8.32-1.91,8.32-1.91s-5.29.49-8.78,1.19c-2.18.43-8.59,1.92-8.59,1.92C20.33,26.58,20,26.9,22.37,26.51Z"/><path class="cls-1" d="M26.65,30.53a52.29,52.29,0,0,0-7.11-2.37c-1.72-.43-4.75-.79-11,1.13,0,0,7.79,1.24,9.38,1.24Z"/><path class="cls-1" d="M0,26.22s3.7-4,5.41-5.68S11,10.83,11,10.83s-5.09,5.47-7,8A62.73,62.73,0,0,0,0,26.22Z"/><path class="cls-1" d="M25.59,1.46a3.35,3.35,0,0,0-.33,2.33,3.35,3.35,0,0,0,2-1.21A8.35,8.35,0,0,0,28.23,0,5.41,5.41,0,0,0,25.59,1.46Z"/><path class="cls-1" d="M26.73,3.85a11.6,11.6,0,0,0-1.86,1.44,3.34,3.34,0,0,0,2.29.54c1.15-.25,1.36-2.69,1.36-2.69A3.87,3.87,0,0,0,26.73,3.85Z"/><path class="cls-1" d="M25.21,6.14a3.35,3.35,0,0,0-2.35.08A3.33,3.33,0,0,0,24.4,8a5.46,5.46,0,0,0,3-.18A8.38,8.38,0,0,0,25.21,6.14Z"/><path class="cls-1" d="M23.13,8.54a3.37,3.37,0,0,0-2.35-.17,3.33,3.33,0,0,0,1.34,1.93c1,.58,3-.09,3-.09A9.25,9.25,0,0,0,23.13,8.54Z"/><path class="cls-1" d="M21.28,10.78A3.4,3.4,0,0,0,19,10.39a3.36,3.36,0,0,0,1.16,2c1,.68,2.94.14,2.94.14A9.07,9.07,0,0,0,21.28,10.78Z"/><path class="cls-1" d="M19.56,12.68a3.38,3.38,0,0,0-2.31-.48,3.35,3.35,0,0,0,1.07,2.09,3.35,3.35,0,0,0,2.3.48A3.31,3.31,0,0,0,19.56,12.68Z"/><path class="cls-1" d="M24.21,2.55a3.38,3.38,0,0,1-.41,2.32A3.36,3.36,0,0,1,22.25,3.1c-.32-1.13,1-2.57,1-2.57A7.72,7.72,0,0,1,24.21,2.55Z"/><path class="cls-1" d="M22,4.88a3.36,3.36,0,0,1-.14,2.35,3.36,3.36,0,0,1-1.74-1.58c-.44-1.09.77-2.6.77-2.6A7,7,0,0,1,22,4.88Z"/><path class="cls-1" d="M19.92,7.11a3.37,3.37,0,0,1-.41,2.31A3.32,3.32,0,0,1,18,7.65c-.31-1.13,1-2.57,1-2.57A7.68,7.68,0,0,1,19.92,7.11Z"/><path class="cls-1" d="M17.72,9.12a3.36,3.36,0,0,1-.87,2.19,3.36,3.36,0,0,1-1.16-2.05,7.94,7.94,0,0,1,.62-2.81A6,6,0,0,1,17.72,9.12Z"/><path class="cls-1" d="M10.19,17.8c2.22-1.9,5.88-5.74,5.88-5.74s-4.1,3-6.62,5.38c-1.57,1.45-6.09,5.89-6.09,5.89C8.55,18.88,8.41,19.34,10.19,17.8Z"/><path class="cls-1" d="M15.73,19a50.91,50.91,0,0,0-7,1.62C7.07,21.09,4.4,22.31.26,27c0,0,7-2.89,8.32-3.69Z"/></g></g></svg>