<svg xmlns="http://www.w3.org/2000/svg" viewBox="0 0 25.92 6.31"><defs><style>.cls-1{fill:#ca8716;}</style></defs><title>アセット 24</title><g id="レイヤー_2" data-name="レイヤー 2"><g id="レイヤー_1-2" data-name="レイヤー 1"><path class="cls-1" d="M25.69,2.52s-3.64-.28-5.22-.32S13.33,0,13.33,0s5,.36,7,.69A42.09,42.09,0,0,1,25.69,2.52Z"/><path class="cls-1" d="M2,2A2.19,2.19,0,0,1,3.17,3a2.19,2.19,0,0,1-1.53.32A5.62,5.62,0,0,1,0,2.51,3.55,3.55,0,0,1,2,2Z"/><path class="cls-1" d="M2.48,3.71A7.75,7.75,0,0,1,4,3.57a2.21,2.21,0,0,1-.87,1.3c-.68.4-1.88-.69-1.88-.69A2.5,2.5,0,0,1,2.48,3.71Z"/><path class="cls-1" d="M4.26,4.14a2.27,2.27,0,0,1,1.18-1A2.24,2.24,0,0,1,5.5,4.68C5.19,5.4,4,6,4,6A5.6,5.6,0,0,1,4.26,4.14Z"/><path class="cls-1" d="M6.37,4.37A2.21,2.21,0,0,1,7.44,3.22a2.26,2.26,0,0,1,.22,1.55c-.24.75-1.49,1.31-1.49,1.31A5.8,5.8,0,0,1,6.37,4.37Z"/><path class="cls-1" d="M8.29,4.63a2.23,2.23,0,0,1,1-1.25,2.21,2.21,0,0,1,.36,1.53c-.16.76-1.38,1.4-1.38,1.4A6.3,6.3,0,0,1,8.29,4.63Z"/><path class="cls-1" d="M10,4.77a2.22,2.22,0,0,1,.91-1.28A2.25,2.25,0,0,1,11.33,5a2.27,2.27,0,0,1-.91,1.28A2.25,2.25,0,0,1,10,4.77Z"/><path class="cls-1" d="M3.12,1.93a2.22,2.22,0,0,0,1.25,1,2.21,2.21,0,0,0,0-1.57C4,.62,2.66.52,2.66.52A5.28,5.28,0,0,0,3.12,1.93Z"/><path class="cls-1" d="M5.25,2.08A2.24,2.24,0,0,0,6.39,3.16,2.21,2.21,0,0,0,6.52,1.6C6.24.87,5,.67,5,.67A4.75,4.75,0,0,0,5.25,2.08Z"/><path class="cls-1" d="M7.28,2.22a2.24,2.24,0,0,0,1.26.94,2.24,2.24,0,0,0,0-1.57C8.13.9,6.82.81,6.82.81A5.4,5.4,0,0,0,7.28,2.22Z"/><path class="cls-1" d="M9.27,2.2a2.24,2.24,0,0,0,1.42.68,2.24,2.24,0,0,0-.36-1.53A5.26,5.26,0,0,0,8.75.26,4,4,0,0,0,9.27,2.2Z"/><path class="cls-1" d="M16.89,3c-2,.07-5.48-.14-5.48-.14s3.39-.36,5.68-.37c1.42,0,5.64.12,5.64.12C18.18,2.82,18.45,3,16.89,3Z"/><path class="cls-1" d="M14.71,6.11a33.93,33.93,0,0,1,4.17-2.4c1-.49,2.88-1.1,7-.68,0,0-4.75,1.77-5.74,2Z"/></g></g></svg>