<svg xmlns="http://www.w3.org/2000/svg" viewBox="0 0 48 30.53"><defs><style>.cls-1{fill:#ca8716;}</style></defs><title>アセット 9</title><g id="レイヤー_2" data-name="レイヤー 2"><g id="レイヤー_1-2" data-name="レイヤー 1"><path class="cls-1" d="M39.22,28.45s-5.46-1.56-7.87-2.11-10.22-5.57-10.22-5.57S28.6,22.86,31.68,24C33.73,24.77,39.22,28.45,39.22,28.45Z"/><path class="cls-1" d="M3.14,20.35a3.51,3.51,0,0,1,1.55,1.89,3.47,3.47,0,0,1-2.45,0A8.78,8.78,0,0,1,0,20.49S2,19.84,3.14,20.35Z"/><path class="cls-1" d="M3.41,23.09a11.15,11.15,0,0,1,2.43.27,3.46,3.46,0,0,1-1.73,1.72c-1.15.4-2.66-1.65-2.66-1.65A4.07,4.07,0,0,1,3.41,23.09Z"/><path class="cls-1" d="M6,24.3a3.51,3.51,0,0,1,2.13-1.21,3.47,3.47,0,0,1-.4,2.41C7,26.5,5,27,5,27A8.63,8.63,0,0,1,6,24.3Z"/><path class="cls-1" d="M9.15,25.29a3.46,3.46,0,0,1,2-1.42A3.47,3.47,0,0,1,11,26.31c-.59,1.06-2.68,1.53-2.68,1.53A9.31,9.31,0,0,1,9.15,25.29Z"/><path class="cls-1" d="M12,26.28a3.49,3.49,0,0,1,1.84-1.6,3.44,3.44,0,0,1,.09,2.44c-.49,1.12-2.54,1.71-2.54,1.71A9.4,9.4,0,0,1,12,26.28Z"/><path class="cls-1" d="M14.56,27a3.49,3.49,0,0,1,1.78-1.67,3.42,3.42,0,0,1,.18,2.43,3.48,3.48,0,0,1-1.78,1.68A3.5,3.5,0,0,1,14.56,27Z"/><path class="cls-1" d="M5,20.57A3.47,3.47,0,0,0,6.57,22.4,3.47,3.47,0,0,0,7,20c-.33-1.17-2.3-1.73-2.3-1.73A8,8,0,0,0,5,20.57Z"/><path class="cls-1" d="M8.16,21.45a3.48,3.48,0,0,0,1.4,2,3.45,3.45,0,0,0,.68-2.34c-.2-1.2-2.09-1.89-2.09-1.89A7.18,7.18,0,0,0,8.16,21.45Z"/><path class="cls-1" d="M11.22,22.29a3.47,3.47,0,0,0,1.62,1.83,3.51,3.51,0,0,0,.41-2.41C12.91,20.54,10.94,20,10.94,20A7.79,7.79,0,0,0,11.22,22.29Z"/><path class="cls-1" d="M14.26,22.89a3.49,3.49,0,0,0,2,1.46,3.48,3.48,0,0,0-.08-2.44,7.93,7.93,0,0,0-2.07-2.15A6.2,6.2,0,0,0,14.26,22.89Z"/><path class="cls-1" d="M25.63,26.51c-3-.5-8.32-1.91-8.32-1.91s5.29.49,8.78,1.19c2.18.43,8.59,1.92,8.59,1.92C27.67,26.58,28,26.9,25.63,26.51Z"/><path class="cls-1" d="M21.35,30.53a52.29,52.29,0,0,1,7.11-2.37c1.72-.43,4.75-.79,11,1.13,0,0-7.79,1.24-9.38,1.24Z"/><path class="cls-1" d="M48,26.22s-3.7-4-5.41-5.68S37,10.83,37,10.83s5.09,5.47,7.05,8A62.73,62.73,0,0,1,48,26.22Z"/><path class="cls-1" d="M22.41,1.46a3.35,3.35,0,0,1,.33,2.33,3.35,3.35,0,0,1-2-1.21A8.35,8.35,0,0,1,19.77,0,5.41,5.41,0,0,1,22.41,1.46Z"/><path class="cls-1" d="M21.27,3.85a11.6,11.6,0,0,1,1.86,1.44,3.34,3.34,0,0,1-2.29.54c-1.15-.25-1.36-2.69-1.36-2.69A3.87,3.87,0,0,1,21.27,3.85Z"/><path class="cls-1" d="M22.79,6.14a3.35,3.35,0,0,1,2.35.08A3.33,3.33,0,0,1,23.6,8a5.46,5.46,0,0,1-3-.18A8.38,8.38,0,0,1,22.79,6.14Z"/><path class="cls-1" d="M24.87,8.54a3.37,3.37,0,0,1,2.35-.17,3.33,3.33,0,0,1-1.34,1.93c-1,.58-3-.09-3-.09A9.25,9.25,0,0,1,24.87,8.54Z"/><path class="cls-1" d="M26.72,10.78a3.4,3.4,0,0,1,2.33-.39,3.36,3.36,0,0,1-1.16,2c-1,.68-2.94.14-2.94.14A9.07,9.07,0,0,1,26.72,10.78Z"/><path class="cls-1" d="M28.44,12.68a3.38,3.38,0,0,1,2.31-.48,3.35,3.35,0,0,1-1.07,2.09,3.35,3.35,0,0,1-2.3.48A3.31,3.31,0,0,1,28.44,12.68Z"/><path class="cls-1" d="M23.79,2.55a3.38,3.38,0,0,0,.41,2.32A3.36,3.36,0,0,0,25.75,3.1c.32-1.13-1-2.57-1-2.57A7.72,7.72,0,0,0,23.79,2.55Z"/><path class="cls-1" d="M26,4.88a3.36,3.36,0,0,0,.14,2.35,3.36,3.36,0,0,0,1.74-1.58c.44-1.09-.77-2.6-.77-2.6A7,7,0,0,0,26,4.88Z"/><path class="cls-1" d="M28.08,7.11a3.37,3.37,0,0,0,.41,2.31A3.32,3.32,0,0,0,30,7.65c.31-1.13-1-2.57-1-2.57A7.68,7.68,0,0,0,28.08,7.11Z"/><path class="cls-1" d="M30.28,9.12a3.36,3.36,0,0,0,.87,2.19,3.36,3.36,0,0,0,1.16-2.05,7.94,7.94,0,0,0-.62-2.81A6,6,0,0,0,30.28,9.12Z"/><path class="cls-1" d="M37.81,17.8c-2.22-1.9-5.88-5.74-5.88-5.74s4.1,3,6.62,5.38c1.57,1.45,6.09,5.89,6.09,5.89C39.45,18.88,39.59,19.34,37.81,17.8Z"/><path class="cls-1" d="M32.27,19a50.91,50.91,0,0,1,7,1.62c1.62.51,4.29,1.73,8.43,6.43,0,0-7-2.89-8.32-3.69Z"/></g></g></svg>