<svg xmlns="http://www.w3.org/2000/svg" viewBox="0 0 32 21.33"><defs><style>.cls-1{fill:#ca9846;}</style></defs><title>アセット 11</title><g id="レイヤー_2" data-name="レイヤー 2"><g id="レイヤー_1-2" data-name="レイヤー 1"><path class="cls-1" d="M23.35,10.67l8.58,9.15a2,2,0,0,0,.07-.49V6Z"/><path class="cls-1" d="M21.53,11.65l-5.39,2.9a1,1,0,0,1-.47.12,1.05,1.05,0,0,1-.49-.13l-5.3-3L1,21.05a1.94,1.94,0,0,0,1,.28H30a1.84,1.84,0,0,0,.53-.08Z"/><path class="cls-1" d="M15.68,12.53,32,3.74V2a2,2,0,0,0-2-2H2A2,2,0,0,0,0,2V3.75Z"/><polygon class="cls-1" points="0 6.04 0 19.18 8.08 10.56 0 6.04"/></g></g></svg>