<svg xmlns="http://www.w3.org/2000/svg" viewBox="0 0 120 97.53"><defs><style>.cls-1{fill:#fff;}</style></defs><title>アセット 7</title><g id="レイヤー_2" data-name="レイヤー 2"><g id="レイヤー_1-2" data-name="レイヤー 1"><path class="cls-1" d="M37.74,97.53c45.28,0,70.05-37.52,70.05-70,0-1.07,0-2.13-.07-3.19A50.25,50.25,0,0,0,120,11.55a48.94,48.94,0,0,1-14.14,3.87A24.73,24.73,0,0,0,116.69,1.8a49.52,49.52,0,0,1-15.64,6A24.64,24.64,0,0,0,59.1,30.23,69.89,69.89,0,0,1,8.35,4.51,24.66,24.66,0,0,0,16,37.38,24.62,24.62,0,0,1,4.82,34.3v.31A24.63,24.63,0,0,0,24.57,58.75a24.79,24.79,0,0,1-6.49.86,24.31,24.31,0,0,1-4.63-.44,24.65,24.65,0,0,0,23,17.1A49.43,49.43,0,0,1,5.87,86.81,51.83,51.83,0,0,1,0,86.47,69.73,69.73,0,0,0,37.74,97.53"/></g></g></svg>